# xmcd
#
# Track frame offsets:
#	150
#	20490
#	33745
#	57900
#	76747
#	99937
#	119172
#	139110
#	158030
#	170872
#	190150
#	213250
#	233192
#	254680
#	274657
#
# Disc length: 4188 seconds
#
# Revision: 1
# Processed by: cddbd v1.5.2PL0 Copyright (c) Steve Scherf et al.
# Submitted via: audiograbber 1.83.01
#
DISCID=d5105a0f
DTITLE=Nelson, Willie - Milk Cow Blues
DYEAR=2000
DGENRE=Country
TTITLE0=Milk Cow Blues (feat. Francine Reed) 
TTITLE1=Outskirts of Town (Keb' Mo')
TTITLE2=Black Night (feat. Dr. John)
TTITLE3=Funny How Time Slips Away (feat. Francine Reed)
TTITLE4=Rainy Day Blues (feat. Jonny Lang)
TTITLE5=Crazy (feat. Susan Tedeschi)
TTITLE6=The Thrill is Gone (feat. B. B. King)
TTITLE7=Wake Me When It´s Over
TTITLE8=Kansas City (feat. Susan Tedeschi)
TTITLE9=Fool´s Paradise (feat. Dr. John)
TTITLE10=Ain´t Nobody´s Business (feat. Jonny Lang)
TTITLE11=Night Life (feat. B. B. King)
TTITLE12=Sittin´ On Top Of The World
TTITLE13=Lonely Street
TTITLE14=Texas Flood (feat. Kenny Wayne Shepherd)
EXTD=
EXTT0=
EXTT1=
EXTT2=
EXTT3=
EXTT4=
EXTT5=
EXTT6=
EXTT7=
EXTT8=
EXTT9=
EXTT10=
EXTT11=
EXTT12=
EXTT13=
EXTT14=
PLAYORDER=
